#N canvas 198 171 962 647 10;
#X obj 91 26 notein;
#X obj 90 79 poly;
#X obj 90 133 route 1 2 3;
#X obj 37 285 osc~;
#X obj 37 257 mtof;
#X obj 239 523 dac~;
#X obj 39 318 *~ 0.25;
#X obj 213 291 osc~;
#X obj 213 263 mtof;
#X obj 215 324 *~ 0.25;
#X obj 403 292 osc~;
#X obj 403 264 mtof;
#X obj 405 325 *~ 0.25;
#X obj 581 289 osc~;
#X obj 581 261 mtof;
#X obj 583 322 *~ 0.25;
#X text 147 24 Note in gets a note on event which includes (note number
\, velocity \, channel);
#X text 620 257 converts MIDI note numbers to frequencies;
#X text 620 286 creates a sine wave based on the given frequency;
#X text 638 322 lower the volume to prevent clipping;
#X obj 37 222 unpack f f;
#X obj 213 222 unpack f f;
#X obj 403 222 unpack f f;
#X obj 581 225 unpack f f;
#X text 137 77 poly assigns a routing number so different notes can
be routed to different instruments;
#X connect 0 0 1 0;
#X connect 0 1 1 1;
#X connect 1 0 2 0;
#X connect 2 0 20 0;
#X connect 2 1 21 0;
#X connect 2 2 22 0;
#X connect 2 3 23 0;
#X connect 3 0 6 0;
#X connect 4 0 3 0;
#X connect 6 0 5 0;
#X connect 6 0 5 1;
#X connect 7 0 9 0;
#X connect 8 0 7 0;
#X connect 9 0 5 0;
#X connect 9 0 5 1;
#X connect 10 0 12 0;
#X connect 11 0 10 0;
#X connect 12 0 5 0;
#X connect 12 0 5 1;
#X connect 13 0 15 0;
#X connect 14 0 13 0;
#X connect 15 0 5 0;
#X connect 15 0 5 1;
#X connect 20 0 4 0;
#X connect 21 0 8 0;
#X connect 22 0 11 0;
#X connect 23 0 14 0;
