#N canvas 419 42 962 647 10;
#X obj 91 26 notein;
#X obj 90 133 route 1 2 3;
#X obj 41 303 osc~;
#X obj 41 275 mtof;
#X obj 239 523 dac~;
#X obj 57 359 *~ 0.25;
#X obj 213 291 osc~;
#X obj 213 263 mtof;
#X obj 215 324 *~ 0.25;
#X obj 403 292 osc~;
#X obj 403 264 mtof;
#X obj 405 325 *~ 0.25;
#X obj 826 297 osc~;
#X obj 826 269 mtof;
#X obj 828 330 *~ 0.25;
#X text 147 24 Note in gets a note on event which includes (note number
\, velocity \, channel);
#X text 536 265 converts MIDI note numbers to frequencies;
#X text 537 331 lower the volume to prevent clipping;
#X obj 41 218 unpack f f;
#X obj 213 222 unpack f f;
#X obj 403 222 unpack f f;
#X obj 826 233 unpack f f;
#X text 137 77 poly assigns a routing number so different notes can
be routed to different instruments;
#X obj 90 107 pack f f f;
#X obj 90 79 poly 4;
#X obj 176 403 +~;
#X obj 343 405 +~;
#X obj 253 473 +~;
#X text 533 294 creates a cosine wave based on the given frequency
;
#X obj 900 307 / 125;
#X obj 476 307 / 125;
#X obj 283 309 / 125;
#X obj 123 320 / 125;
#X obj 98 273 moses 1;
#X obj 258 262 moses 1;
#X obj 451 260 moses 1;
#X obj 879 268 moses 1;
#X connect 0 0 24 0;
#X connect 0 1 24 1;
#X connect 1 0 18 0;
#X connect 1 1 19 0;
#X connect 1 2 20 0;
#X connect 1 3 21 0;
#X connect 2 0 5 0;
#X connect 3 0 2 0;
#X connect 5 0 25 0;
#X connect 6 0 8 0;
#X connect 7 0 6 0;
#X connect 8 0 25 1;
#X connect 9 0 11 0;
#X connect 10 0 9 0;
#X connect 11 0 26 0;
#X connect 12 0 14 0;
#X connect 13 0 12 0;
#X connect 14 0 26 1;
#X connect 18 0 3 0;
#X connect 18 1 33 0;
#X connect 19 0 7 0;
#X connect 19 1 34 0;
#X connect 20 0 10 0;
#X connect 20 1 35 0;
#X connect 21 0 13 0;
#X connect 21 1 36 0;
#X connect 23 0 1 0;
#X connect 24 0 23 0;
#X connect 24 1 23 1;
#X connect 24 2 23 2;
#X connect 25 0 27 0;
#X connect 26 0 27 1;
#X connect 27 0 4 0;
#X connect 27 0 4 1;
#X connect 29 0 14 1;
#X connect 30 0 11 1;
#X connect 31 0 8 1;
#X connect 32 0 5 1;
#X connect 33 0 5 1;
#X connect 33 1 32 0;
#X connect 34 0 8 1;
#X connect 34 1 31 0;
#X connect 35 0 11 1;
#X connect 35 1 30 0;
#X connect 36 0 14 1;
#X connect 36 1 29 0;
